<svg height="800" width="800" xmlns="http://www.w3.org/2000/svg" viewBox="0 0 512 512" xml:space="preserve"><path d="M256 0C114.623 0 0 114.616 0 256s114.623 256 256 256c141.391 0 256-114.616 256-256S397.391 0 256 0zm122.268 287.116c0 8.666-7.028 15.68-15.68 15.68h-89.334l10.898 46.623c1 4.312-.71 8.798-4.332 11.348a10.842 10.842 0 0 1-12.131.24l-131.913-95.225a12.073 12.073 0 0 1 0-19.566l131.913-95.231a10.84 10.84 0 0 1 12.131.246 10.868 10.868 0 0 1 4.332 11.348l-10.898 46.623h89.334c8.652 0 15.68 7.014 15.68 15.68v62.234z" style="fill:#000"/></svg>